<svg width="17" height="17" viewBox="0 0 17 17" fill="none" xmlns="http://www.w3.org/2000/svg">
<g opacity="0.3">
<path d="M10.95 1.14409C12.635 0.648089 13.934 1.41409 14.527 2.32309C15.2 2.09209 15.858 1.84209 16.538 1.61509C16.5249 2.30145 16.2117 2.94761 15.681 3.38309C16.366 3.55309 16.985 2.89209 16.985 2.89209C16.816 3.89209 15.979 4.68009 15.422 4.91609C15.191 11.6661 12.247 16.1331 5.34501 15.9981H4.89901C4.48901 15.9981 0.735007 15.5381 0.00100708 14.1111C2.27201 14.3071 3.89401 13.6891 4.69401 12.9341C3.73401 12.6341 2.01501 12.4571 1.71501 9.98409C2.06401 10.0901 2.27901 10.2121 2.90501 10.1031C1.70501 9.24709 0.374007 8.53009 0.448007 6.33009C0.733007 6.65809 1.51501 6.86609 1.78801 6.80209C1.08501 6.56109 -0.181993 3.44209 0.894007 1.85009C2.71201 3.70409 4.62901 5.45609 8.04601 5.62309C8.25401 3.33009 9.18301 1.79309 10.95 1.14409Z" fill="white"/>
</g>
</svg>
