<svg width="64" height="77" fill="none" xmlns="http://www.w3.org/2000/svg"><path fill-rule="evenodd" clip-rule="evenodd" d="M61.1 23.5H36.3c13.81-6.9 14.92-11.25 14.41-13.68-1.16-3.97-5.7-7.03-10-5.41-5.57 2.09-7.14 10.39-8.65 16.39-1.92-6.07-3.78-13.82-8.13-17.74a7.31 7.31 0 00-5.77-2.03c-4.02.36-9.8 5.38-7.45 10.98 2.25 5.38 9.68 8.78 14.58 11.5H2.88A2.88 2.88 0 000 26.36v11.32c0 1.59 1.3 2.87 2.88 2.87h.27V77H61V40.56h.1a2.88 2.88 0 002.89-2.87V26.37c-.01-1.59-1.3-2.87-2.88-2.87zM42.4 6.94c2.1-.3 4.99 1.3 5.26 3.21.4 2.76-3.4 5.26-5.09 6.42-2.52 1.75-4.93 2.65-7.28 4.06.88-3.7 2.54-13.01 7.11-13.69zm-22.88 9.97c-2.22-1.48-6.54-4.43-6.44-7.77.11-3.6 5.74-6.57 8.82-3.89 3.85 3.38 5.7 11.11 7.11 16.56-3.25-1.54-6.32-2.79-9.49-4.9zm5.97 57.12H6.14V40.56H25.5v33.47zm0-36.5H3.05v-11H25.5v11zm10.16 0v36.5h-7.17v-47.5h7.17v11zm22.35 36.5H38.64V40.56h19.37v33.47zm2.92-36.5H38.64v-11h22.3v11z" fill="#81B3D2"/></svg>