<svg width="138" height="70" fill="none" xmlns="http://www.w3.org/2000/svg"><path d="M138 0H0l59.51 65.68a12.58 12.58 0 0018.98 0L138 0z" fill="#81B3D3"/><path d="M36.69.46l32.14 37.88L100.86.69 36.69.46z" fill="#23A9E1"/><path fill-rule="evenodd" clip-rule="evenodd" d="M78.42 14.72H61.1c-.28-.13-.66-.27-1.09-.43-2.2-.82-5.6-2.1-2.66-4.04a4.5 4.5 0 013.52-.64c1.09.15 2.1.3 3.52-.99 2.58-2.34 6.28 1.29 7.55 2.53.26.26.41.41.44.4 1.25-1.05 3.25.75 4.73 2.09.52.46.97.87 1.31 1.08zm9.41-3.48l-9.86.05c3.9-4.5 5.65-4.01 9.86-.05z" fill="#fff"/><path fill-rule="evenodd" clip-rule="evenodd" d="M36 0h66v15.04l-32.94 39.2-.22.28L36 14.58V0zm4.01 1.15v1.91l-1.6-1.9H40zm57.61 0V3.6l2.08-2.44h-2.08zM48.47 13.08l-.1-.08.83.97L68.83 37.3 49.2 13.97c2.65-4.54 6.45-5.22 10.54-.3.66.81 1.05 1.55 1.37 2.15.45.84.75 1.4 1.39 1.44 1.14.08 1.7-.67 2.25-1.43.45-.6.89-1.19 1.61-1.36a3.24 3.24 0 012.72.38 5.37 5.37 0 001.42.56c.63.16 1.13.3 1.48 1 .11.22.21.46.3.68.42 1 .8 1.9 2.6 2.2 2.55.43 4.7-.52 6.94-1.52 1.61-.7 3.26-1.44 5.14-1.7l2.51-2.94c-.1-.1-2.47-2.54-6.13-4.95-3.43-2.25-8.73-4.95-14.5-4.97-5.8-.04-11.02 2.65-14.39 4.9a37.18 37.18 0 00-5.97 4.96l-.01.01zM97.1 1.15H93.9v6.81l3.22-3.78V1.15zm-7.28 11.46V1.15h3.55v7.4l-3.5 4.1a1 1 0 00-.05-.04zm-.5-.5V2.22l-3.56 6.9c1.24.94 2.43 1.93 3.55 3zM85.15 1.87v6.82a41.53 41.53 0 00-3.66-2.35l3.66-4.47zm-4.31 4.11V1.73L77.73 4.5c1.06.43 2.1.92 3.12 1.47zm.5-4.82h3.73L81.36 5.7V1.15zm7.95 0h-3.63v7.06l3.63-7.06zm-12.43 0h3.86L77.2 4.28l-.2-.07-.13-.05v-3zm-.5 2.82v-2.4l-3.1 1.52c1.04.23 2.08.52 3.1.88zm-4.21-2.36v1.26c-.72-.12-1.45-.2-2.18-.25l2.18-1zm-4.52 1l-2.25-1.04v1.3c.74-.12 1.49-.21 2.25-.25zm-6.37-1.04l3.07 1.5a25.2 25.2 0 00-3.07.87V1.57zm.3-.42l3.31 1.62V1.15h-3.3zm6.88 1.28l-2.76-1.28h2.76v1.28zm3.49-1.28h-2.88V2.5l2.88-1.34zm.88 0h3.24l-3.24 1.59V1.15zm-15.92 0l3.5 3.11.36-.13V1.16H56.9zm-.11.59l3.09 2.74a31.5 31.5 0 00-3.1 1.49V1.74zm-.67 4.6l-3.64-4.47v6.89a35.9 35.9 0 013.64-2.41zM48.3 2.23L51.9 9.2a37.77 37.77 0 00-3.59 3.15V2.22zm.02-1.07l3.64 7.07V1.15h-3.64zm7.95 4.59l-3.73-4.59h3.73v4.59zM40.52 3.66l3.23 3.84V1.15h-3.23v2.51zm3.73-2.5h3.55V12.3l-3.55-4.2V1.14z" fill="#491213"/><path d="M66.23 46.03l2.6-4.22 2.6 4.22-2.6 4.23-2.6-4.23z" fill="#23A9E1"/><path fill-rule="evenodd" clip-rule="evenodd" d="M52.88 11.72c-1.78.55-2.88 3.01-.26 3.12-.1-1.67.37-2.38.52-.35l1.33-.04c1.65-.05 3.39-.1 4.8-.53-1.14-1.09-4.7-2.73-6.39-2.2zm5.91 11.26c-5.6-.04-1.81-8.64.1-8.12 2.18.7 1.94 8.2-.1 8.13zm2.54-2.85c-.1 1.97.88 1.67 1.43.05 0 .35-.04.71-.08 1.07-.1.93-.2 1.8.54 2.4 1.32 1.06 3.86-.4 4.7-1.5-1.6-.62.34-4.38 1.54-4.96-1.23 2.58-2.65 6.43.57 6.43-1.64 0 1.3-6.75 1.31-6.7-.18-.61-.65-.68-1.2-.76-.4-.06-.87-.12-1.3-.43-1.58-1.1-2.4-.15-3.2.78-.36.4-.7.8-1.1 1.02-.49.26-.96.4-1.38.52-.99.28-1.74.5-1.83 2.08zm12.89 10.43c-3.44-2.02-2.57-3.53.23-4.93.36-.18.83-.48 1.36-.8 1.6-1.02 3.73-2.36 4.77-1.7l-6.36 7.43zM70.67 33c-1.7-.1-3.49-.21-5.05.13 1.2.3 4.15 1.16 1.41 1.9.98 1.4 2.58 1.3 3.63.07a3.5 3.5 0 01-.63-.4c-.12-.1-.24-.2-.38-.28 1.08-.2 2.1-.82 2.23-1.35l-1.2-.07zm-.3-1.5c.87-.84 1.82-.8 2.75 0-.48 1.38-9.06.9-10.13-1.72.53.08 1.21.09 1.95.1 2.06.02 4.58.05 5.43 1.62zm-4.03-2.15c-.45-.14-1.2-.23-1.97-.32-1.9-.23-3.87-.46-1.41-1.48 1.06-.44 6.59.07 3.38 1.8zm1.92-3.03c-.48-1.08.36-2.36 1.74-1.43 1.2.81-.56 2.02-1.74 1.43zm-2.84.09c-2.26.68-5.27-.79-1.63-1.52 2.26-.46 4.67.5 1.63 1.52z" fill="#DC6243"/><path d="M71.77 25.83c-2.9-2.98 4.35-2.71 5.51-3.76.85.28 7-5.38 8.49-5.03-1.08 1.26-3.39 5.29-5.05 5.29-1.27 0-2.56-.2-3.55.71-1.44 1.33-3.84 2.01-5.4 2.8z" fill="#F49774"/><path d="M72.73 22.18c-1.6.86-3.1-2.54-.35-2.2 1.82.21 3.67-.16 5.42.14a5.63 5.63 0 01-5.07 2.06z" fill="#F4B1A4"/><path fill-rule="evenodd" clip-rule="evenodd" d="M39.27 14.48c.36 1.22 1.58 1.67 2.73 1.33l.08.16c0 .03.02.05.03.08a18 18 0 00-.5.2c-.62.27-1.51.66-1.64.61a3.93 3.93 0 00-.9-1.07c-.24-.23-.48-.45-.68-.72a3.73 3.73 0 01-.8-2.6c.14-1.74 1.9-3.66 3.76-3.4.92.13 1.68.79 2.26 1.48l.44.59c.3.41.58.82 1.05 1.1l-1.68 2.13c-.33-.15-.23-.37-.12-.62l.09-.21c.16-.52.28-1.11.06-1.63-.51-1.17-1.9-1.21-2.84-.54-.95.67-1.7 1.92-1.34 3.11zm8.42 1.92c.12-.02.2.02.28.06.12.05.21.1.34-.1l-1.59-1.89c-.24-.28-.54-.6-.46.02.06.4-3.97 3.67-4.21 3.77-.14.06-.25.02-.35-.02-.13-.06-.24-.1-.37.09l.6.71a560.3 560.3 0 00.97 1.17l.34.38c.19.2.15-.27.14-.36v-.02c-.05-.3.26-.55.48-.73l.08-.06c1-.89 3.5-2.98 3.75-3.02zm3.42 4.54c.34.4.58.83.53 1.37-.02.13-.1.28-.17.44-.14.31-.3.63 0 .76l1.45-1.84c-.4-.1-3.49-3.8-3.54-4.2l-2.05 1.12c.07.29.42.2.75.11.17-.04.33-.09.46-.08.53.04.92.36 1.26.75l-.35.3c-1.26 1.06-3.52 2.96-3.78 3-.05.01-.14-.03-.25-.07-.2-.1-.46-.2-.47.04 0 .12.3.42.5.62l.16.16 1.45 1.72c.22-.1.17-.23.13-.38-.05-.13-.1-.27 0-.42.12-.2 2.06-1.83 3.22-2.8v-.01l.7-.6zm13.85 15.58l-.42-.54-.21-.26-.16.13c-.06.04-.04.13-.02.23s.04.23-.02.33c-.51.8-3.74 3.23-3.9 3.35-.18.12-.36.1-.52.08-.18-.02-.34-.03-.45.13l.6.73a13 13 0 001.36 1.6c.22.03.18-.25.15-.45a.62.62 0 01-.01-.2c.07-.23 1.52-1.44 2.18-2l.12-.1c.19-.15.38.16.51.38l.07.1c.2.31.3.65.19 1.02-.02.07-.07.15-.12.23-.13.2-.25.41-.04.53l.78-.91v-.01h.01l.9-1.06c.12-.14-.13-.09-.25-.06h-.05c-.24.13-.47.15-.69-.02-.06-.04-.7-.7-.64-.75l.2-.19c.24-.22.5-.46.78-.53.56-.14 1.03.99 1.11 1.38.08.38.07.77-.05 1.14l-.08.18c-.08.17-.15.31.1.42l1.38-1.9a.46.46 0 01-.26-.05c-.59-.4-1.85-2.03-2.55-2.93zm-8.66-5.2a3.35 3.35 0 011.98-.8 3.63 3.63 0 013.1 1.48 3.47 3.47 0 01-.5 4.76c-1.7 1.2-3.78 1.01-5.07-.69a3.44 3.44 0 01.5-4.75zm3.17.59c.95-.1 1.5.8 1.1 1.77a4.83 4.83 0 01-2.42 2.38c-1.18.46-2.02-.54-1.53-1.66a4.84 4.84 0 012.42-2.38c.15-.06.3-.1.43-.1v-.01zm-2.5-4.54c-.09-.04-.18-.08-.28-.09a7.7 7.7 0 00-2.22.2l-.82.14c-.65.09-2.17 1.57-2.27 1.86-.01.03.01.12.03.22.06.23.13.52-.1.48-.08-.01-.27-.27-.4-.44a3.03 3.03 0 00-.1-.14l-1.62-1.92c.14-.2.26-.13.4-.05.11.06.24.13.4.08.26-.1 1.17-.87 1.6-1.24l.15-.13c.55-.46 1.04-2.17 1.2-2.73l.05-.17c.06-.17.08-1.14.05-1.12.22-.18.36.04.5.25l.14.19 1.78 2.11c-.13.2-.25.14-.39.07-.13-.05-.27-.12-.44.02-.16.13-.54 1.23-.71 1.73l-.04.11.14-.02c.53-.1 1.78-.3 1.92-.55.07-.12.03-.22 0-.32-.05-.11-.1-.22.13-.32l1.44 1.72c-.15.22-.34.14-.54.06zm23.96 6.68c.12.42.2.86.14 1.3-.07.57-.64 1.9-1.41 1.52-.54-.26-1.03-.7-1.5-1.14-.19-.18-.38-.36-.57-.51.52-.61.97-1.14 1.85-.84.24.08.45-.03.2-.17l-.3-.18c-.58-.36-1.75-1.08-1.82-1-.08.1-.02.22.05.37.1.17.2.38.09.6-.12.22-.3.42-.46.62l-.15.16-.22-.17c-.44-.35-.94-.73-.46-1.29a2.4 2.4 0 011.36-.87c.13-.03.32 0 .5.02.36.05.73.1.8-.17a666.43 666.43 0 00-2.11-1.01c.09.42-1.37 2.06-2.2 3l-.48.55-.1.1c-.14.13-.33.32-.33.41-.01.25.32.1.4.06h.02c.32-.12 4.43 3.31 4.53 3.55.03.09 0 .17-.03.25-.03.1-.06.17 0 .22h.01c.02.03.15.14.16.12.05-.05.16-.19.31-.4.79-1 2.72-3.5 3.18-3.63l-1.53-2.37c-.3.12-.16.4-.03.66l.1.24zm-7.72 5.2c.72-.46 2.56-1.6 3.72-.85 1.13.94.88 2.48.13 3.58-.36.53-.82.97-1.3 1.38l-.03.03c-.35.3-.6.51-.67.99l-2.26-1.65c.11-.3.34-.17.56-.04.08.04.16.09.24.11.39.13.81.17 1.21.06a2.34 2.34 0 001.56-1.52c.23-.86-.62-1.12-1.26-.82-.31.15-.61.34-.9.53l-.35.23c-.66.4-1.42.71-2.16.33a1.97 1.97 0 01-1.09-1.73c0-.8.45-1.49.99-2.05.12-.12.27-.25.43-.38.4-.34.83-.7.92-1.2l1.66 1.13c.1.06.08.08.03.15l-.06.07c-.04.07-.37.04-.63 0a2.52 2.52 0 00-.31-.02c-.6.04-1.2.3-1.5.84-.35.62.14 1.3.81.98l.26-.16zm21.33-28.91a.22.22 0 00-.08.07l-.8.95-.8.98a2.2 2.2 0 01-.1.1c-.12.14-.2.22.07.37.54-.28 3.52 4.76 3.25 5.49-.47.24-4.5-3.28-4.6-3.52l.01-.17c.04-.2.08-.48-.14-.44-.12.02-.33.33-.47.54l-.11.16-.58.7c.13.18.23.14.35.08.07-.04.16-.08.27-.06.23.05 1.05.73 1.38 1.01l.08.07-.67.03c-.53.02-1.13.05-1.24.04-.33.05-.37-.1-.42-.27-.03-.12-.07-.26-.24-.33l-1.47 1.8-.86 1.04h-.01l-.02.03.02.01.04.03.07.06c.04.03.05.05.07.05l.04-.02a.84.84 0 01.19-.09c.33-.11 4.25 3.2 4.4 3.37.1.14.1.28.09.41-.02.16-.03.3.17.39l1.17-1.42a.62.62 0 01.03-.04c.04-.04.05-.04-.02-.1-.15-.12-.23-.06-.32 0-.08.06-.17.12-.33.1-.3-.04-2.21-1.64-3.36-2.6l-.46-.39 5.32-.2c.2 0 .74.59.7.8-.02.07-.06.14-.09.2-.07.12-.12.2.12.31l.37-.44.57-.68.15-.19c.06-.04.1-.1.14-.17l.1-.13.1-.11c.35-.4 1.06-1.2.97-1.3-.14-.11-.25-.05-.36 0-.13.08-.27.15-.49-.03a7.4 7.4 0 01-.88-1.31l-.05-.09c-.16-.26.28-.52.54-.67l.08-.05c.5-.32 2.11-.77 2.26.22.01.07-.02.15-.05.22-.04.1-.07.18 0 .24l.02.02c.04.05.12.13.15.08l2.15-2.57-.07-.06a.49.49 0 00-.14-.12c-.48.47-5.47-1.52-5.83-1.8-.08-.02-.13-.17-.17-.3-.06-.18-.1-.34-.2-.3zm2.07 3.5l-2.3-.95 1.02 1.75c.2-.19.4-.36.63-.5.2-.13.42-.23.65-.3zm-8.88 6.8a3.72 3.72 0 00-3.02 1.32 3.5 3.5 0 00.4 4.94 3.48 3.48 0 004.9-.55 3.46 3.46 0 00-2.28-5.7zm.3 2.26a3.92 3.92 0 00-1.75-.7 1.1 1.1 0 00-.98.4c-.81.99.46 2.12 1.2 2.66.75.53 2.13 1.31 2.93.47l.02-.02a.8.8 0 00.05-.07c.74-1.05-.7-2.21-1.48-2.74zm-4.88 3.58c-1.2-.07-2.4.5-3.3 1.58l-1.56 1.89-.36.42c.13.18.26.14.41.1.13-.03.27-.07.42.02.28.16 4.05 3.3 4.12 3.48.04.13.02.22 0 .29-.03.09-.06.16.09.28.11.1 2.94-3.4 3.2-4.02a2.82 2.82 0 00-.86-3.21 3.94 3.94 0 00-2.16-.83zm-.78 1.62a1.23 1.23 0 00-.27-.04 3 3 0 00-2.05.88c-.16.17 3.82 3.4 4.02 3.2l.3-.27.13-.14c1.25-1.52-.71-3.27-2.13-3.63z" fill="#fff"/></svg>