<svg width="75" height="72" fill="none" xmlns="http://www.w3.org/2000/svg"><path fill-rule="evenodd" clip-rule="evenodd" d="M45.66 65.03h-16V41.21h16v23.82zm-2.94-20.9H32.59v17.98h10.13V44.13z" fill="#81B3D2"/><path fill-rule="evenodd" clip-rule="evenodd" d="M72.77 39.25l2.08-2.06-9.91-9.87V0H51.13v13.57L37.5 0 .15 37.19l2.08 2.06 7.83-7.8v37.63H6.12V72H70v-2.92h-5.06V31.46l7.83 7.8zM62 69.08H13V28.53L37.5 4.15 62 28.53v40.55zm-7.94-52.59L62 24.4V2.92h-7.94V16.5z" fill="#81B3D2"/><path fill-rule="evenodd" clip-rule="evenodd" d="M37.66 34.8a7.73 7.73 0 01-7.75-7.72 7.73 7.73 0 017.75-7.71 7.73 7.73 0 017.75 7.71 7.73 7.73 0 01-7.75 7.71zm4.97-7.72a4.96 4.96 0 00-4.97-4.95 4.96 4.96 0 104.97 4.95zM17.05 41.21h3v3.92h-3V41.2zm8.94 0h-3v3.92h3V41.2zm-8.94 5.97h3v3.92h-3v-3.92zm8.94 0h-3v3.92h3v-3.92zm23-5.97h3v3.92h-3V41.2zm8.94 0h-3v3.92h3V41.2zM49 47.18h3v3.92h-3v-3.92zm8.94 0h-3v3.92h3v-3.92z" fill="#81B3D2"/></svg>