<svg width="75" height="70" fill="none" xmlns="http://www.w3.org/2000/svg"><path fill-rule="evenodd" clip-rule="evenodd" d="M8.98 31.54h60.88c.04-.61.06-1.24.06-1.87l-.03-1.17C69.23 12.66 55.2 0 37.95 0 20.72 0 6.68 12.66 6.01 28.5a26.88 26.88 0 00.04 3.04h2.93zm12.98 10.93l-5.33-4.06-5.32 4.06-6.19-4.72 1.72-2.46 4.47 3.4 5.33-4.05 5.32 4.05 5.32-4.05 5.33 4.05 5.33-4.05 5.33 4.05 5.33-4.05 5.32 4.05 5.33-4.05 5.34 4.06 4.47-3.4 1.72 2.45-6.2 4.71-5.33-4.05-5.33 4.06-5.32-4.06-5.33 4.06-5.33-4.06-5.33 4.06-5.33-4.06-5.32 4.06zM5.06 46.7h65.8a4.24 4.24 0 014.13 4.31v3.5a4.24 4.24 0 01-4.14 4.32h-.93v1.05c0 5.54-4.34 10.07-9.65 10.07H15.63c-5.3 0-9.65-4.53-9.65-10.07v-1.05h-.93a4.24 4.24 0 01-4.13-4.31v-3.5a4.24 4.24 0 014.13-4.32zm55.22 20.2c3.7 0 6.73-3.14 6.73-7.02v-1.05H8.9v1.05c0 3.88 3.02 7.03 6.73 7.03h44.65zm11.8-12.38c0 .69-.57 1.27-1.23 1.27H5.05c-.66 0-1.22-.58-1.22-1.27v-3.5c0-.7.56-1.28 1.22-1.28h65.8c.66 0 1.22.58 1.22 1.27v3.5zm-5.1-26.03C66.3 14.36 53.53 3.04 37.94 3.04 22.36 3.04 9.6 14.36 8.93 28.5h58.04z" fill="#81B3D2"/><path d="M37.95 17.29c1.08 0 1.95-.9 1.95-2.03 0-1.12-.87-2.03-1.95-2.03-1.07 0-1.94.9-1.94 2.03 0 1.12.87 2.03 1.94 2.03zM30.17 12.26c1.08 0 1.95-.9 1.95-2.03 0-1.12-.87-2.03-1.95-2.03-1.07 0-1.94.9-1.94 2.03 0 1.12.87 2.03 1.94 2.03zM45.73 12.26c1.08 0 1.95-.9 1.95-2.03 0-1.12-.87-2.03-1.95-2.03-1.07 0-1.94.9-1.94 2.03 0 1.12.87 2.03 1.94 2.03z" fill="#81B3D2"/></svg>